<?xml version="1.0" standalone="no"?>
<!DOCTYPE svg PUBLIC "-//W3C//DTD SVG 20010904//EN"
 "http://www.w3.org/TR/2001/REC-SVG-20010904/DTD/svg10.dtd">
<svg version="1.0" xmlns="http://www.w3.org/2000/svg"
 width="280.000000pt" height="280.000000pt" viewBox="0 0 280.000000 280.000000"
 preserveAspectRatio="xMidYMid meet">
<metadata>
Created by potrace 1.11, written by Peter Selinger 2001-2013
</metadata>
<g transform="translate(0.000000,280.000000) scale(0.100000,-0.100000)"
fill="#000000" stroke="none">
<path d="M405 2601 c-13 -8 -26 -25 -30 -38 -9 -38 -5 -1674 5 -1693 5 -9 10
-27 12 -41 14 -94 148 -260 305 -380 32 -24 59 -47 61 -51 2 -5 8 -8 14 -8 5
0 30 -14 56 -32 116 -80 444 -216 557 -231 17 -2 44 0 60 5 17 5 40 11 53 14
72 15 392 150 392 166 0 4 6 8 14 8 37 0 277 181 365 275 87 94 147 204 158
295 2 14 4 395 6 848 l2 823 -22 27 -21 27 -981 0 c-846 0 -985 -2 -1006 -14z
m1866 -155 c5 -63 3 -1491 -2 -1521 -10 -60 -16 -81 -30 -107 -15 -30 -76
-106 -110 -138 -77 -73 -109 -100 -118 -100 -5 0 -11 -4 -13 -9 -10 -27 -333
-211 -371 -211 -3 0 -22 -8 -43 -17 -22 -9 -41 -17 -44 -18 -3 -1 -32 -9 -65
-20 -70 -21 -78 -21 -165 8 -36 11 -67 22 -70 22 -5 2 -9 3 -105 42 -78 32
-245 122 -265 143 -3 3 -25 19 -50 35 -66 44 -224 204 -248 250 -36 72 -42
119 -43 322 0 109 0 208 0 220 l1 22 643 3 642 3 39 23 c21 13 44 29 52 36 29
29 64 90 64 111 0 12 3 25 7 29 4 3 6 76 5 161 -1 131 -4 163 -21 200 -32 73
-94 124 -171 140 -19 4 -175 8 -346 7 -287 0 -315 -2 -355 -20 -49 -21 -88
-57 -121 -111 -19 -31 -23 -53 -26 -164 l-4 -128 73 3 74 3 2 102 c3 113 15
145 61 160 15 5 163 9 329 9 l303 -1 27 -28 28 -27 0 -155 0 -155 -28 -27 -27
-28 -625 0 -625 0 0 471 0 472 870 0 c645 0 870 -3 871 -12z"/>
<path d="M968 1222 l-28 -3 0 -137 c0 -75 3 -147 6 -160 8 -28 51 -52 85 -45
46 9 53 35 55 196 2 130 0 147 -15 148 -52 3 -79 4 -103 1z"/>
<path d="M1650 1210 c0 -9 4 -20 9 -25 4 -6 32 -71 61 -145 30 -77 62 -142 74
-152 30 -25 63 -22 91 8 32 34 29 58 -19 169 -8 16 -24 55 -36 85 -12 30 -26
59 -31 64 -5 5 -40 10 -79 10 -57 1 -70 -2 -70 -14z"/>
</g>
</svg>
